<svg xmlns="http://www.w3.org/2000/svg" xmlns:xlink="http://www.w3.org/1999/xlink" viewBox="0 0 103.27 23.32"><defs><style>.cls-1{fill:none;}.cls-2{clip-path:url(#clip-path);}</style><clipPath id="clip-path" transform="translate(0 -0.68)"><polygon class="cls-1" points="37.39 0 44.81 18.32 103.67 20.57 103.67 0.45 37.39 0"/></clipPath></defs><g id="Layer_2" data-name="Layer 2"><g id="Layer_1-2" data-name="Layer 1"><polygon points="60.95 19.57 60.41 19.57 58.87 23.26 59.62 23.26 60.68 20.53 61.75 23.26 62.5 23.26 60.95 19.57"/><polygon points="98.37 19.57 97.83 19.57 96.28 23.26 97.04 23.26 98.1 20.53 99.16 23.26 99.92 23.26 98.37 19.57"/><path d="M57.85,23.94V21.17l-1,2.77h-.56l-1-2.77v2.77H54.6V20.25h.94l1,2.8,1-2.8h.94v3.69Z" transform="translate(0 -0.68)"/><path d="M64.53,23.94l-1-1.41v1.41h-.69V20.25h1.07a1.43,1.43,0,0,1,1,.27,1.16,1.16,0,0,1,.39.91,1.11,1.11,0,0,1-1,1.15l1,1.36Zm-1-3V22h.33c.53,0,.76-.17.76-.56s-.13-.54-.79-.54Z" transform="translate(0 -0.68)"/><path d="M67.61,23.94l-1.15-1.62v1.62h-.69V20.25h.69v1.59l1.15-1.59h.82L67,22.06l1.39,1.88Z" transform="translate(0 -0.68)"/><path d="M68.87,23.94V20.25h2v.65h-1.3v.87h1.25v.66H69.56v.86h1.3v.65Z" transform="translate(0 -0.68)"/><path d="M72.54,20.9v3h-.69v-3h-.68v-.65h2.06v.65Z" transform="translate(0 -0.68)"/><path d="M73.57,23.94V20.25h.69v3.69Z" transform="translate(0 -0.68)"/><path d="M77.21,23.94l-1.55-2.68v2.68H75V20.25h.78l1.54,2.69V20.25H78v3.69Z" transform="translate(0 -0.68)"/><path d="M80.5,24a1.92,1.92,0,1,1,1.74-2.68h-.81a1.2,1.2,0,0,0-1-.49A1.23,1.23,0,0,0,79.18,22v.07a1.25,1.25,0,0,0,1.25,1.25h0a1.16,1.16,0,0,0,1.08-.65H80v-.64h2.42v.09A1.9,1.9,0,0,1,80.5,24Z" transform="translate(0 -0.68)"/><path d="M86.33,23.74a2.6,2.6,0,0,1-1.2.2h-.86V20.25h.85a2.59,2.59,0,0,1,1.31.26,1.76,1.76,0,0,1,.81,1.59A1.73,1.73,0,0,1,86.33,23.74ZM86,21.05a2,2,0,0,0-.89-.15H85v2.39h.15a1.86,1.86,0,0,0,.9-.17,1.24,1.24,0,0,0,.35-1.72,1.17,1.17,0,0,0-.35-.35Z" transform="translate(0 -0.68)"/><path d="M87.77,23.94V20.25h.69v3.69Z" transform="translate(0 -0.68)"/><path d="M91,24a1.92,1.92,0,1,1,1.74-2.68h-.81a1.2,1.2,0,0,0-1-.49A1.23,1.23,0,0,0,89.68,22v.07a1.24,1.24,0,0,0,1.24,1.26H91a1.18,1.18,0,0,0,1-.65H90.51v-.64h2.42v.09A1.9,1.9,0,0,1,91,24Z" transform="translate(0 -0.68)"/><path d="M93.37,23.94V20.25h.69v3.69Z" transform="translate(0 -0.68)"/><path d="M95.84,20.9v3h-.69v-3h-.68v-.65h2.06v.65Z" transform="translate(0 -0.68)"/><path d="M100.37,23.94V20.25h.69v3h1.13v.65Z" transform="translate(0 -0.68)"/><rect x="51.67" y="22.51" width="3.62" height="0.75"/><path d="M8.07,5.19H12v2.1h5V11H12v2.86h5v3.71H8Z" transform="translate(0 -0.68)"/><path d="M32.27,15.2l-.9,2.44h-.2l-3-3.84L33.5,1h3.35l6.61,16.64H38.85L38,15.2Zm1.16-3.37h3.49L35.21,6.14h-.07Z" transform="translate(0 -0.68)"/><g class="cls-2"><path d="M37.27,13.43a4.71,4.71,0,0,0,.64,2A3.82,3.82,0,0,0,39,16.57a3.55,3.55,0,0,0,1.26.59,5.31,5.31,0,0,0,1.12.16A4.51,4.51,0,0,0,42.92,17a4.67,4.67,0,0,0,1.34-.8A4.38,4.38,0,0,0,45.2,15a3.57,3.57,0,0,0,.36-1.64,3.49,3.49,0,0,0-.44-1.87A3.64,3.64,0,0,0,44,10.3a5.51,5.51,0,0,0-1.38-.67c-.49-.16-.93-.29-1.34-.39S40.52,9,40,8.86a5.76,5.76,0,0,1-1.44-.68A3.89,3.89,0,0,1,37.42,7,3.57,3.57,0,0,1,37,5.05a4.35,4.35,0,0,1,.34-1.85,3.85,3.85,0,0,1,1-1.36A4.25,4.25,0,0,1,39.74,1,5,5,0,0,1,42.92.92a3.92,3.92,0,0,1,1.29.69,4,4,0,0,1,1,1.2,4.49,4.49,0,0,1,.55,1.74h-.67a6.82,6.82,0,0,0-.3-1.07,4,4,0,0,0-.62-1.06,3.26,3.26,0,0,0-1.07-.81,3.86,3.86,0,0,0-1.67-.32,4,4,0,0,0-1.49.26,3.56,3.56,0,0,0-1.21.73,3.21,3.21,0,0,0-.81,1.15,3.59,3.59,0,0,0-.29,1.48A3.21,3.21,0,0,0,38,6.55a3.27,3.27,0,0,0,1,1.06,5.46,5.46,0,0,0,1.44.69c.54.17,1.09.33,1.66.48l1,.29a4.5,4.5,0,0,1,1.38.66,4.34,4.34,0,0,1,1.24,1.32,4.09,4.09,0,0,1,.53,2.19,4.27,4.27,0,0,1-.41,1.89,4.92,4.92,0,0,1-4.43,2.77,5.14,5.14,0,0,1-1.56-.25,4.11,4.11,0,0,1-1.5-.8,4.51,4.51,0,0,1-1.17-1.4,4.67,4.67,0,0,1-.58-2Z" transform="translate(0 -0.68)"/><path d="M55.93,1v.59H51.41v16h-.68v-16H46.21V1Z" transform="translate(0 -0.68)"/><path d="M56.64,1h.68V12.89a6.65,6.65,0,0,0,.11,1,4.53,4.53,0,0,0,.32.94,6.25,6.25,0,0,0,.59,1A3.48,3.48,0,0,0,59.82,17a4.79,4.79,0,0,0,1.94.41A4.85,4.85,0,0,0,63.64,17a3.53,3.53,0,0,0,1.47-1.12,6.79,6.79,0,0,0,.6-1,4.5,4.5,0,0,0,.31-.94,4.79,4.79,0,0,0,.11-1V1h.68V13a5.84,5.84,0,0,1-.22,1.37,5.11,5.11,0,0,1-.6,1.35,4.1,4.1,0,0,1-1.14,1.17,5.67,5.67,0,0,1-1.45.74,5.25,5.25,0,0,1-1.66.27,5.08,5.08,0,0,1-1.64-.27,5.88,5.88,0,0,1-1.43-.74,4,4,0,0,1-1.15-1.17,5.11,5.11,0,0,1-.6-1.35A6.45,6.45,0,0,1,56.68,13V11.76Z" transform="translate(0 -0.68)"/><path d="M69.14,1h4.7a10,10,0,0,1,3.52.57,6.87,6.87,0,0,1,4.29,4.24,10,10,0,0,1,.58,3.51,10,10,0,0,1-.58,3.51A7.08,7.08,0,0,1,80,15.42a7.22,7.22,0,0,1-2.64,1.63,10.26,10.26,0,0,1-3.52.56h-4.7Zm.68,16h4a9.64,9.64,0,0,0,3.24-.51A6.58,6.58,0,0,0,79.51,15,6.5,6.5,0,0,0,81,12.57a9.13,9.13,0,0,0,.53-3.23A9.34,9.34,0,0,0,81,6.07a6.6,6.6,0,0,0-1.5-2.45,6.61,6.61,0,0,0-2.4-1.53,9.29,9.29,0,0,0-3.26-.53h-4Z" transform="translate(0 -0.68)"/><path d="M84.45,17.61h-.67V1h.67Z" transform="translate(0 -0.68)"/><path d="M86,9.29a8.7,8.7,0,0,1,.68-3.45,8,8,0,0,1,1.85-2.73,8.52,8.52,0,0,1,2.76-1.79A8.9,8.9,0,0,1,94.63.68,9,9,0,0,1,98,1.32a8.34,8.34,0,0,1,4.59,4.52,8.7,8.7,0,0,1,.68,3.45,8.7,8.7,0,0,1-.68,3.45A8.34,8.34,0,0,1,98,17.26a8.85,8.85,0,0,1-3.37.64,8.7,8.7,0,0,1-3.34-.64,8.52,8.52,0,0,1-2.76-1.79,8,8,0,0,1-1.85-2.73A8.7,8.7,0,0,1,86,9.29Zm.68,0a8,8,0,0,0,.63,3.2,7.78,7.78,0,0,0,4.23,4.22A8,8,0,0,0,100.28,15,7.86,7.86,0,0,0,102,12.49a8,8,0,0,0,.62-3.2,8,8,0,0,0-.62-3.2,7.74,7.74,0,0,0-1.69-2.54A8,8,0,0,0,89,3.58a8.16,8.16,0,0,0-1.69,2.51A8,8,0,0,0,86.68,9.29Z" transform="translate(0 -0.68)"/></g><path d="M26,12a4.67,4.67,0,0,0,2-.77A5,5,0,0,0,29.27,9.9,5,5,0,0,0,30,8.29a6.8,6.8,0,0,0,.21-1.55,6.32,6.32,0,0,0-.51-2.5,4.89,4.89,0,0,0-1.54-2,4.62,4.62,0,0,0-.84-.54,5,5,0,0,0-1-.37A8,8,0,0,0,25,1.12,9.91,9.91,0,0,0,23,1H21.36V4.74h2a3.37,3.37,0,0,1,2,.55A2,2,0,0,1,26.1,7a3.28,3.28,0,0,1-.1.7,2.05,2.05,0,0,1-.37.79,2.36,2.36,0,0,1-.84.63,3.6,3.6,0,0,1-1.49.25l-1.3.1v3l3.71,5.16h4.86Z" transform="translate(0 -0.68)"/><polygon points="21.47 16.93 21.47 0.29 0 0.29 0 4.02 3.28 4.02 3.28 16.93 7.53 16.93 7.54 4 17.43 4 17.43 16.93 21.47 16.93"/></g></g></svg>