<svg xmlns="http://www.w3.org/2000/svg" xmlns:xlink="http://www.w3.org/1999/xlink" viewBox="0 0 103.27 23.33"><defs><style>.cls-1{fill:none;}.cls-2{fill:#fff;}.cls-3{clip-path:url(#clip-path);}</style><clipPath id="clip-path" transform="translate(0 -0.68)"><polygon class="cls-1" points="37.39 0 44.81 18.32 103.67 20.57 103.67 0.45 37.39 0"/></clipPath></defs><g id="Layer_2" data-name="Layer 2"><g id="Layer_1-2" data-name="Layer 1"><polygon class="cls-2" points="60.95 19.57 60.41 19.57 58.87 23.26 59.62 23.26 60.68 20.53 61.75 23.26 62.5 23.26 60.95 19.57"/><polygon class="cls-2" points="98.37 19.57 97.83 19.57 96.28 23.26 97.04 23.26 98.1 20.53 99.16 23.26 99.92 23.26 98.37 19.57"/><path class="cls-2" d="M57.85,23.94V21.17l-1,2.77h-.56l-1-2.77v2.77h-.69V20.25h.94l1,2.8,1-2.8h.94v3.69Z" transform="translate(0 -0.68)"/><path class="cls-2" d="M64.53,23.94l-1-1.41v1.41h-.69V20.25h1.07a1.41,1.41,0,0,1,1,.27,1.15,1.15,0,0,1,.39.91,1.11,1.11,0,0,1-1,1.15l1,1.36Zm-.67-3h-.3V22h.33c.53,0,.76-.17.76-.56S64.52,20.9,63.86,20.9Z" transform="translate(0 -0.68)"/><path class="cls-2" d="M67.61,23.94l-1.15-1.62v1.62h-.69V20.25h.69v1.59l1.15-1.59h.82L67,22.06l1.39,1.88Z" transform="translate(0 -0.68)"/><path class="cls-2" d="M68.87,23.94V20.25h2v.65h-1.3v.87h1.25v.66H69.56v.86h1.3v.65Z" transform="translate(0 -0.68)"/><path class="cls-2" d="M72.54,20.9v3h-.69v-3h-.68v-.65h2.06v.65Z" transform="translate(0 -0.68)"/><path class="cls-2" d="M73.57,23.94V20.25h.69v3.69Z" transform="translate(0 -0.68)"/><path class="cls-2" d="M77.21,23.94l-1.55-2.68v2.68H75V20.25h.78l1.54,2.69V20.25H78v3.69Z" transform="translate(0 -0.68)"/><path class="cls-2" d="M80.5,24a1.92,1.92,0,1,1,1.74-2.68h-.81a1.19,1.19,0,0,0-1-.49,1.22,1.22,0,0,0-1.25,1.26,1.25,1.25,0,0,0,1.29,1.25,1.16,1.16,0,0,0,1.08-.65H80v-.64h2.42v.09A1.9,1.9,0,0,1,80.5,24Z" transform="translate(0 -0.68)"/><path class="cls-2" d="M86.33,23.74a2.55,2.55,0,0,1-1.2.2h-.86V20.25h.85a2.65,2.65,0,0,1,1.31.26,1.77,1.77,0,0,1,.81,1.59A1.75,1.75,0,0,1,86.33,23.74ZM86,21.05a1.85,1.85,0,0,0-.89-.15H85v2.39h.15a1.8,1.8,0,0,0,.9-.17,1.24,1.24,0,0,0,0-2.07Z" transform="translate(0 -0.68)"/><path class="cls-2" d="M87.77,23.94V20.25h.69v3.69Z" transform="translate(0 -0.68)"/><path class="cls-2" d="M91,24a1.92,1.92,0,1,1,1.74-2.68h-.81a1.19,1.19,0,0,0-1-.49,1.22,1.22,0,0,0-1.25,1.26A1.25,1.25,0,0,0,91,23.35,1.16,1.16,0,0,0,92,22.7H90.51v-.64h2.42v.09A1.9,1.9,0,0,1,91,24Z" transform="translate(0 -0.68)"/><path class="cls-2" d="M93.37,23.94V20.25h.69v3.69Z" transform="translate(0 -0.68)"/><path class="cls-2" d="M95.84,20.9v3h-.69v-3h-.68v-.65h2.06v.65Z" transform="translate(0 -0.68)"/><path class="cls-2" d="M100.37,23.94V20.25h.69v3h1.13v.65Z" transform="translate(0 -0.68)"/><rect class="cls-2" x="53.14" y="21.73" width="0.75" height="3.69" transform="translate(29.94 76.4) rotate(-90)"/><path class="cls-2" d="M8.07,5.19H12v2.1l5,0V11l-5,0v2.86l5,0v3.71H8Z" transform="translate(0 -0.68)"/><path class="cls-2" d="M32.27,15.2l-.9,2.44h-.2l-3-3.84L33.5,1h3.35l6.61,16.64H38.85L38,15.2Zm1.16-3.37h3.49L35.21,6.14h-.07Z" transform="translate(0 -0.68)"/><g class="cls-3"><path class="cls-2" d="M37.27,13.43a4.77,4.77,0,0,0,.64,2A4,4,0,0,0,39,16.57a3.62,3.62,0,0,0,1.26.59,5.18,5.18,0,0,0,1.12.16A4.51,4.51,0,0,0,42.92,17a4.42,4.42,0,0,0,1.34-.8A4.15,4.15,0,0,0,45.2,15a3.66,3.66,0,0,0,.36-1.64,3.5,3.5,0,0,0-.44-1.87A3.64,3.64,0,0,0,44,10.3a5.51,5.51,0,0,0-1.38-.67c-.49-.16-.93-.29-1.34-.39S40.52,9,40,8.86a5.56,5.56,0,0,1-1.44-.68A4,4,0,0,1,37.42,7,3.59,3.59,0,0,1,37,5.05a4.36,4.36,0,0,1,.34-1.85,3.89,3.89,0,0,1,1-1.36A4.32,4.32,0,0,1,39.74,1,5,5,0,0,1,42.92.92a3.84,3.84,0,0,1,1.29.69,4,4,0,0,1,1,1.2,4.46,4.46,0,0,1,.55,1.74h-.67a6.48,6.48,0,0,0-.3-1.07,3.93,3.93,0,0,0-.62-1.06,3.32,3.32,0,0,0-1.07-.81,3.88,3.88,0,0,0-1.67-.32,4.1,4.1,0,0,0-1.49.26,3.53,3.53,0,0,0-1.21.73,3.16,3.16,0,0,0-.81,1.15,3.59,3.59,0,0,0-.29,1.48A3.24,3.24,0,0,0,38,6.55a3.26,3.26,0,0,0,1,1.06,5.34,5.34,0,0,0,1.44.69c.54.17,1.09.33,1.66.48l1,.29a4.56,4.56,0,0,1,1.38.66,4.27,4.27,0,0,1,1.24,1.32,4.08,4.08,0,0,1,.53,2.19,4.36,4.36,0,0,1-.41,1.89,4.83,4.83,0,0,1-1.08,1.48,4.73,4.73,0,0,1-1.55.95,4.84,4.84,0,0,1-1.8.34,5.27,5.27,0,0,1-1.56-.25,4.19,4.19,0,0,1-1.5-.8,4.63,4.63,0,0,1-1.17-1.4,4.69,4.69,0,0,1-.58-2Z" transform="translate(0 -0.68)"/><path class="cls-2" d="M55.93,1v.59H51.41V17.61h-.68v-16H46.21V1Z" transform="translate(0 -0.68)"/><path class="cls-2" d="M56.64,1h.68V11.78c0,.4,0,.78,0,1.11a6.12,6.12,0,0,0,.11,1,4.18,4.18,0,0,0,.32.94,6.36,6.36,0,0,0,.59,1,3.53,3.53,0,0,0,1.48,1.12,4.83,4.83,0,0,0,1.94.41,4.73,4.73,0,0,0,1.88-.41,3.56,3.56,0,0,0,1.47-1.12,7.42,7.42,0,0,0,.6-1,4.7,4.7,0,0,0,.31-.94,5.16,5.16,0,0,0,.11-1c0-.33,0-.71,0-1.11V1h.68V11.76c0,.38,0,.79,0,1.24a6,6,0,0,1-.22,1.37,5.07,5.07,0,0,1-.6,1.35,4.07,4.07,0,0,1-1.14,1.17,5.67,5.67,0,0,1-1.45.74,5.2,5.2,0,0,1-1.66.27,5.08,5.08,0,0,1-1.64-.27,5.54,5.54,0,0,1-1.43-.74,4,4,0,0,1-1.15-1.17,5.07,5.07,0,0,1-.6-1.35A6.62,6.62,0,0,1,56.68,13c0-.45,0-.86,0-1.24Z" transform="translate(0 -0.68)"/><path class="cls-2" d="M69.14,1h4.7a10.19,10.19,0,0,1,3.52.57,6.88,6.88,0,0,1,4.29,4.24,9.94,9.94,0,0,1,.58,3.51,9.9,9.9,0,0,1-.58,3.51A7.06,7.06,0,0,1,80,15.42a7.23,7.23,0,0,1-2.64,1.63,10.44,10.44,0,0,1-3.52.56h-4.7ZM69.82,17h4a9.66,9.66,0,0,0,3.24-.51A6.55,6.55,0,0,0,79.51,15,6.63,6.63,0,0,0,81,12.57a9.08,9.08,0,0,0,.53-3.23A9.51,9.51,0,0,0,81,6.07a6.56,6.56,0,0,0-1.5-2.45A6.46,6.46,0,0,0,77.1,2.09a9.21,9.21,0,0,0-3.26-.53h-4Z" transform="translate(0 -0.68)"/><path class="cls-2" d="M84.45,17.61h-.67V1h.67Z" transform="translate(0 -0.68)"/><path class="cls-2" d="M86,9.29a8.74,8.74,0,0,1,.68-3.45,8.14,8.14,0,0,1,1.85-2.73,8.53,8.53,0,0,1,2.76-1.79A8.87,8.87,0,0,1,94.63.68,9,9,0,0,1,98,1.32a8.55,8.55,0,0,1,2.74,1.79,8.29,8.29,0,0,1,1.85,2.73,8.74,8.74,0,0,1,.68,3.45,8.67,8.67,0,0,1-.68,3.45,8.29,8.29,0,0,1-1.85,2.73A8.55,8.55,0,0,1,98,17.26a8.79,8.79,0,0,1-3.37.64,8.68,8.68,0,0,1-3.34-.64,8.53,8.53,0,0,1-2.76-1.79,8.14,8.14,0,0,1-1.85-2.73A8.67,8.67,0,0,1,86,9.29Zm.68,0a8,8,0,0,0,.63,3.2,7.77,7.77,0,0,0,4.23,4.22A8,8,0,0,0,100.28,15,7.79,7.79,0,0,0,102,12.49a8,8,0,0,0,.62-3.2,8,8,0,0,0-.62-3.2,7.79,7.79,0,0,0-1.69-2.54,8,8,0,0,0-13,2.54A8,8,0,0,0,86.68,9.29Z" transform="translate(0 -0.68)"/></g><path class="cls-2" d="M26,12a4.65,4.65,0,0,0,2-.77,5.15,5.15,0,0,0,1.27-1.33A5.06,5.06,0,0,0,30,8.29a6.32,6.32,0,0,0,.21-1.55,6.42,6.42,0,0,0-.51-2.5,4.94,4.94,0,0,0-1.54-2,5.43,5.43,0,0,0-.84-.54,5.16,5.16,0,0,0-1-.37,9,9,0,0,0-1.37-.21C24.36,1,23.73,1,23,1H21.36V4.74h2a3.33,3.33,0,0,1,2,.55A2,2,0,0,1,26.1,7,3.43,3.43,0,0,1,26,7.7a2.11,2.11,0,0,1-.37.79,2.37,2.37,0,0,1-.84.63,3.57,3.57,0,0,1-1.49.25L22,9.47v3l3.71,5.16h4.86Z" transform="translate(0 -0.68)"/><polygon class="cls-2" points="21.47 16.93 21.47 0.29 0 0.29 0 4.02 3.28 4.02 3.28 16.93 7.53 16.93 7.54 4 17.43 4 17.43 16.93 21.47 16.93"/></g></g></svg>